<?xml version="1.0" encoding="UTF-8"?>
<svg id="Layer_2" data-name="Layer 2" xmlns="http://www.w3.org/2000/svg" viewBox="0 0 749.69 209.3">
  <defs>
    <style>
      .cls-1 {
        fill: #fff;
      }

      .cls-2 {
        fill: #094975;
      }
    </style>
  </defs>
  <g id="Layer_1-2" data-name="Layer 1">
    <g>
      <rect class="cls-2" width="209.3" height="209.3"/>
      <polygon class="cls-2" points="350.37 199.67 385.43 138.94 420.49 199.67 420.49 199.67 439.37 199.67 385.43 106.24 331.49 199.67 350.37 199.67"/>
      <path class="cls-2" d="M509.12,162.1l21.69,37.57h-18.88l-21.24-36.79-10.9-18.88h22.7c5.21,0,9.44-4.22,9.44-9.44s-4.22-9.44-9.44-9.44h-32.36v74.55h-18.88v-93.43h51.24c15.64,0,28.32,12.68,28.32,28.32,0,7.82-3.17,14.9-8.29,20.02-3.63,3.63-8.24,6.28-13.4,7.52Z"/>
      <polygon class="cls-2" points="310.18 106.24 300.74 115.68 270.39 146.02 240.05 115.68 230.61 106.24 221.17 106.24 221.17 199.67 240.05 199.67 240.05 134.56 260.96 155.46 270.39 164.9 279.84 155.46 300.74 134.56 300.74 199.67 319.62 199.67 319.62 106.24 310.18 106.24"/>
      <g>
        <rect class="cls-2" x="542.68" y="106.24" width="79.56" height="18.88"/>
        <rect class="cls-2" x="542.68" y="180.79" width="79.56" height="18.88"/>
        <rect class="cls-2" x="542.68" y="143.51" width="64.3" height="18.88"/>
      </g>
      <polygon class="cls-2" points="704.24 106.24 704.24 174.51 653 106.24 634.12 106.24 634.12 199.67 653 199.67 653 131.39 704.24 199.67 723.12 199.67 723.12 106.24 704.24 106.24"/>
      <g>
        <polygon class="cls-1" points="30.74 199.67 65.8 138.94 100.86 199.67 100.86 199.67 119.74 199.67 65.8 106.24 11.86 199.67 30.74 199.67"/>
        <path class="cls-1" d="M197.43,152.95c0,12.9-5.23,24.58-13.68,33.03-8.45,8.45-20.13,13.68-33.03,13.68h-7.23l-10.9-18.88h18.13c15.37,0,27.83-12.46,27.83-27.84s-12.46-27.84-27.83-27.84h-50.27l-10.9-18.88h61.17c25.8,0,46.71,20.91,46.71,46.71Z"/>
        <polygon class="cls-1" points="197.44 9.63 143.47 103.05 134.04 86.72 169.1 25.99 16.16 25.99 11.86 18.51 102.29 18.51 111.17 9.63 197.44 9.63"/>
      </g>
      <g>
        <path class="cls-2" d="M744.69,121.51h-1.75l-3.4-4.04h-1.9v4.04h-1.35v-10.15h2.84c.61,0,1.12.03,1.53.12s.78.22,1.11.43c.36.23.65.52.86.88.21.35.32.8.32,1.34,0,.73-.19,1.34-.56,1.83-.36.49-.87.87-1.52,1.12l3.82,4.43ZM741.53,114.22c0-.3-.05-.55-.15-.78s-.27-.41-.51-.57c-.2-.13-.43-.23-.69-.27-.27-.05-.59-.08-.95-.08h-1.59v3.83h1.37c.43,0,.8-.03,1.12-.11.32-.08.58-.21.81-.42.21-.19.36-.41.45-.66s.14-.56.14-.94Z"/>
        <path class="cls-2" d="M739.41,126.63c-5.67,0-10.28-4.61-10.28-10.28s4.61-10.28,10.28-10.28,10.28,4.61,10.28,10.28-4.61,10.28-10.28,10.28ZM739.41,107.82c-4.7,0-8.53,3.82-8.53,8.52s3.82,8.52,8.53,8.52,8.52-3.82,8.52-8.52-3.82-8.52-8.52-8.52Z"/>
      </g>
    </g>
  </g>
</svg>