<svg width="173" height="16" viewBox="0 0 173 16" fill="none" xmlns="http://www.w3.org/2000/svg">
<path fill-rule="evenodd" clip-rule="evenodd" d="M128.03 0.132068C126.316 0.436802 125.151 1.19097 124.896 1.36167C124.253 1.7911 123.801 2.23386 123.568 2.47858C122.057 4.06027 121.3 6.14472 121.405 8.43656C121.507 10.655 122.26 12.3934 123.748 13.8411C124.657 14.7266 125.692 15.3154 127.063 15.7275C127.324 15.8062 127.528 15.8642 127.714 15.8942C127.719 15.8949 127.846 15.9155 127.98 15.9282C130.405 16.1549 131.712 15.7722 131.712 15.7722C132.416 15.5661 133.128 15.2247 133.128 15.2247C133.135 15.2214 133.141 15.2187 133.146 15.2161C134.156 14.7286 134.787 14.2645 135.515 13.4743C136.187 12.7442 136.528 12.2154 136.927 11.2825C138.012 8.7493 137.731 5.66662 136.209 3.40612C135.84 2.85933 134.877 1.87712 134.359 1.52104C133.632 1.02093 132.661 0.563497 131.841 0.33278C131.76 0.310108 131.625 0.2721 131.446 0.232758C131.385 0.219421 131.333 0.208752 131.294 0.201417C131.294 0.201417 131.264 0.195415 131.233 0.190081C130.352 0.028045 129.705 0.00404117 129.705 0.00404117C129.57 -0.00129334 128.899 -0.0226325 128.03 0.132068ZM130.912 3.10739C132.637 3.61483 133.903 5.04248 134.28 6.90689C134.398 7.49102 134.387 8.65061 134.256 9.26474C133.767 11.5586 131.799 13.1376 129.429 13.1376C128.088 13.1376 126.915 12.6595 125.996 11.7386C124.858 10.5984 124.323 8.69795 124.663 7.00158C125.057 5.03581 126.312 3.6215 128.146 3.07805C128.791 2.88668 130.213 2.90134 130.911 3.10672" fill="#B9B9B9"/>
<path d="M152.049 8.73533C150.409 5.82333 148.768 2.912 147.127 0C144.069 5.33355 141.011 10.6664 137.953 16H141.622C143.457 12.7855 145.292 9.57161 147.127 6.35708C148.919 9.57161 150.711 12.7855 152.503 16H156.186C154.809 13.5771 153.426 11.1582 152.049 8.73533Z" fill="#B9B9B9"/>
<path d="M84.8391 9.51079L88.4654 15.907H85.309L81.7582 9.64317L79.936 6.42878H83.7305C84.6022 6.42878 85.3084 5.70966 85.3084 4.82158C85.3084 3.9335 84.6022 3.21439 83.7305 3.21439H78.3201V15.907H75.1631V0H83.7305C86.3456 0 88.4654 2.15867 88.4654 4.82158C88.4654 6.15271 87.9354 7.35877 87.0791 8.23088C86.4724 8.84888 85.7022 9.29991 84.8391 9.51079Z" fill="#014B76"/>
<path d="M37.3956 0H23.9072V3.16279H37.3956V0Z" fill="#014B76"/>
<path d="M34.7909 6.41846H23.9072V9.58125H34.7909V6.41846Z" fill="#014B76"/>
<path d="M37.3956 12.8372H23.9072V15.9999H37.3956V12.8372Z" fill="#014B76"/>
<path d="M105.116 0H91.6279V3.16279H105.116V0Z" fill="#014B76"/>
<path d="M102.512 6.41846H91.6279V9.58125H102.512V6.41846Z" fill="#014B76"/>
<path d="M105.116 12.8372H91.6279V15.9999H105.116V12.8372Z" fill="#014B76"/>
<path d="M48.8273 16C47.2014 16 45.7681 15.6338 44.5267 14.9014C43.2853 14.169 42.3131 13.1965 41.6114 11.9832C40.9091 10.7705 40.5586 9.44578 40.5586 8.011C40.5586 6.48751 40.9278 5.12277 41.6667 3.91679C42.4057 2.7108 43.4032 1.75695 44.6593 1.05391C45.9154 0.351525 47.3047 0 48.8273 0C50.128 0 51.3468 0.266145 52.4849 0.7991C53.623 1.33139 54.5466 2.0271 55.2563 2.88489C54.5546 3.45587 53.8536 4.02685 53.1519 4.59716C51.9958 3.79939 51.636 3.62396 51.636 3.62396C51.0856 3.34181 50.0954 2.93559 48.8273 2.9516C48.3969 2.95693 47.5892 2.97761 46.6743 3.40651C46.1699 3.64331 45.7088 3.97215 45.291 4.39371C44.3375 5.35557 43.861 6.56155 43.861 8.011C43.861 9.46045 44.3415 10.6037 45.3023 11.5729C45.6848 11.9591 46.1066 12.268 46.5664 12.5008C47.5786 13.0117 48.5001 13.0264 48.9159 13.0271C50.1927 13.0291 51.1236 12.5921 51.5847 12.3694C52.3237 12.0125 52.8621 11.5856 53.2086 11.2688C53.8689 11.8918 54.5293 12.5148 55.1896 13.1378C54.436 14.0109 53.4938 14.706 52.363 15.2236C51.2322 15.7419 50.0534 16 48.8267 16H48.8273Z" fill="#014B76"/>
<path fill-rule="evenodd" clip-rule="evenodd" d="M68.8582 0V4.47435C68.8562 4.7165 68.8535 4.97195 68.8515 5.2427C68.8088 10.0756 68.8015 10.2579 68.6325 10.7069C68.0463 12.2602 66.9192 13.0193 65.2013 13.0179C63.2864 13.0159 62.0792 12.0121 61.6946 10.1009C61.5878 9.56937 61.5657 8.69126 61.5657 4.87216C61.5657 4.78568 61.5657 4.70186 61.5657 4.61871V0H58.4243V2.26046C58.4203 2.94432 58.4189 3.85635 58.4189 5.07639C58.4189 9.38377 58.4336 9.9246 58.5752 10.7049C58.9424 12.7359 59.8211 14.1242 61.292 14.9983C62.5179 15.7261 63.6503 15.9643 65.5605 15.8957C67.0114 15.8438 67.6811 15.6869 68.6886 15.1653C69.9632 14.5047 70.7277 13.7038 71.3594 12.3667C71.9796 11.0548 71.999 10.8333 72.0003 5.16952C72.0003 4.9786 72.0003 4.795 72.0003 4.61871V4.51826C72.0003 4.44907 72.0003 4.38122 72.0003 4.3147V0H68.8589H68.8582Z" fill="#014B76"/>
<path d="M114.029 11.293C114.029 11.293 113.359 11.2883 112.889 11.0318C112.444 10.7892 112.263 10.3874 112.2 10.2595C111.997 9.84365 111.998 9.45715 111.999 9.30988C112.003 8.06243 111.988 6.81499 111.984 5.56754C111.987 4.33142 111.991 3.0953 111.993 1.85918C111.993 0.832298 111.162 0 110.136 0C109.111 0 108.279 0.832298 108.279 1.85918V5.37829C108.279 5.37829 108.279 5.38295 108.279 5.38562V12.004C108.273 12.7257 108.44 13.2755 108.565 13.5973C109.104 14.986 110.203 15.6084 110.385 15.6977C110.518 15.763 110.788 15.8956 111.167 15.9603C111.28 15.9796 111.398 15.9923 111.945 15.9976C112.364 16.0023 112.683 15.9989 112.813 15.9976C112.951 15.9963 113.089 15.9963 113.227 15.9963C113.616 15.9963 113.902 15.9976 113.955 15.9976C114.274 15.9996 115.707 15.9969 119.628 15.9829V11.315C117.762 11.3077 115.895 11.3003 114.03 11.2923L114.029 11.293Z" fill="#B9B9B9"/>
<path d="M171.489 3.97715C170.776 2.75839 169.799 1.79045 168.56 1.074C167.32 0.358224 165.905 0 164.317 0H158.325V16H164.317C165.861 16 167.253 15.6498 168.493 14.9487C169.733 14.2482 170.721 13.2996 171.455 12.1029C172.191 10.9068 172.558 9.55464 172.558 8.04569C172.558 6.53675 172.201 5.19658 171.489 3.97715ZM168.876 9.93487C168.756 10.2631 168.538 10.742 168.137 11.2117C167.558 11.8894 166.91 12.1829 166.449 12.3844C165.404 12.8427 164.51 12.8907 163.373 12.9421C162.69 12.9728 162.016 12.9554 161.554 12.9347V2.94851H164.294C165.645 2.94851 166.803 3.42881 167.769 4.38874C168.319 4.93508 168.598 5.47409 168.678 5.62885C169.109 6.47738 169.174 7.23585 169.201 7.58741C169.279 8.61538 169.053 9.44523 168.876 9.93487Z" fill="#B9B9B9"/>
<path d="M9.76472 0.0938009C9.04284 0.0871316 8.49324 0.254532 8.1707 0.379249C6.78169 0.918132 6.15931 2.01724 6.06983 2.19931C6.00505 2.33203 5.87216 2.60214 5.80738 2.98096C5.78802 3.09367 5.77533 3.21172 5.76999 3.75861C5.76531 4.17744 5.76865 4.4969 5.76999 4.62629C5.77332 5.00711 5.76999 5.38793 5.76999 5.76808V8.09301C7.33863 8.09035 8.90727 8.08834 10.4759 8.08568V5.84211C10.4759 5.84211 10.4806 5.17251 10.737 4.70232C10.9794 4.25747 11.3814 4.07607 11.5097 4.01337C11.9257 3.80996 12.3117 3.81129 12.4593 3.81196C14.4346 3.8193 16.4099 3.77728 18.3846 3.80596C18.6604 3.80996 18.8821 3.81129 19.003 3.81196C20.0841 3.83064 20.9609 2.93361 20.9295 1.89652C20.9002 0.904793 20.0494 0.0817955 19.0163 0.0931333" fill="#014B76"/>
<path d="M11.1656 15.9992C11.8875 16.0059 12.4371 15.8385 12.7597 15.7138C14.1487 15.1749 14.771 14.0758 14.8605 13.8937C14.9253 13.761 15.0582 13.4909 15.123 13.1121C15.1423 12.9993 15.155 12.8813 15.1604 12.3344C15.165 11.9156 15.1617 11.5961 15.1604 11.4667C15.157 11.0859 15.1604 10.7051 15.1604 10.3249V8C13.5917 8.00267 12.0231 8.00467 10.4544 8.00734V10.2509C10.4544 10.2509 10.4498 10.9205 10.1933 11.3907C9.95092 11.8355 9.54891 12.0169 9.4207 12.0796C9.00466 12.2831 8.61868 12.2817 8.4711 12.2811C6.49577 12.2737 4.52044 12.3157 2.54577 12.2871C2.26997 12.2831 2.04827 12.2817 1.9274 12.2811C0.846243 12.2624 -0.0305691 13.1594 0.000817172 14.1965C0.0302 15.1882 0.880967 16.0112 1.91404 15.9999" fill="#B9B9B9"/>
</svg>
